<?xml version="1.0" encoding="utf-8"?>
<!-- Generator: Adobe Illustrator 21.1.0, SVG Export Plug-In . SVG Version: 6.00 Build 0)  -->
<svg version="1.1" id="Layer_1" xmlns="http://www.w3.org/2000/svg" xmlns:xlink="http://www.w3.org/1999/xlink" x="0px" y="0px"
	 viewBox="0 0 500 500" style="enable-background:new 0 0 500 500;" xml:space="preserve">
<style type="text/css">
	.st0{fill:#666666;}
</style>
<g>
	<path class="st0" d="M108.6,108.6c-78.1,78.1-78.1,204.8,0,282.9s204.8,78.1,282.9,0s78.1-204.8,0-282.9S186.1,30.5,108.6,108.6z
		 M367.8,367.8c-65.1,65.1-171.1,65.1-236.1,0s-65.1-171.1,0-236.1s171.1-65.1,236.1,0S432.9,302.8,367.8,367.8z"/>
	<path class="st0" d="M249.8,154.8L249.8,154.8c-9.2,0-16.4,7.2-16.4,16.4v62.7h-62.7c-9.2,0-16.4,7.2-16.4,16.4
		c0,9.2,7.2,16.4,16.4,16.4h62.7v62.7c0,9.2,7.2,16.4,16.4,16.4c4.3,0,8.7-1.9,11.6-4.8c2.9-2.9,4.8-7.2,4.8-11.6v-62.7h62.7
		c4.3,0,8.7-1.9,11.6-4.8c2.9-2.9,4.8-7.2,4.8-11.6c0-9.2-7.2-16.4-16.4-16.4h-62.7v-62.7C266.1,162,258.9,154.8,249.8,154.8z"/>
</g>
</svg>
