<?xml version="1.0" encoding="utf-8"?>
<!-- Generator: Adobe Illustrator 21.1.0, SVG Export Plug-In . SVG Version: 6.00 Build 0)  -->
<svg version="1.1" id="Layer_1" xmlns="http://www.w3.org/2000/svg" xmlns:xlink="http://www.w3.org/1999/xlink" x="0px" y="0px"
	 viewBox="0 0 139.7 160" style="enable-background:new 0 0 139.7 160;" xml:space="preserve">
<style type="text/css">
	.st0{fill:#FFFFFF;}
</style>
<g>
	<path class="st0" d="M85.9,130.9L85.9,130.9c0,0.3-0.4,0.2-0.5,0.5c4,3.1,7,3.8,12.5,3.5c2.5-1.8,4.7-3.9,7.2-5.6
		C99.2,129.8,91.7,133.5,85.9,130.9z"/>
	<path class="st0" d="M60.4,142.4c-6.4-3-13-6-18.4-9.9c-1-0.7-7.7-9.4-8.5-9.1c-12.1,4.7-23.3,12.9-33.4,20.7
		c1.8,3.9,3.3,7.9,4.8,12.1h59.1l0.1,0.2l-0.7-2.4C61.7,149,60.7,145.3,60.4,142.4z"/>
	<path class="st0" d="M47.2,129.5c-3.1,3.2,8.8,7.5,12.6,7.7c0-2,1.1-3.9,0.9-5.4C56.2,131,50.3,131.5,47.2,129.5L47.2,129.5z"/>
	<path class="st0" d="M93.9,145.8c8.8,2.7,7.2-12.1-0.9-6.7l0.1,0.1C92.7,141.8,93.3,142.8,93.9,145.8z"/>
	<path class="st0" d="M118,129.7c-4.6-2.7-12.8,5.4-16.3,6.6c0.3,1,0.9,1.9,1,3.3c2-0.5,4.5-0.2,6.3,0.6c-2.1,0.2-4.4,0.2-5.7,1.1
		c-0.5,1.4,0.1,3.3-0.2,5.3c4.8,1.4,10.4,2.1,16.6,2.3c1.1-1.6,1.6-4.5,1.5-7.5l0.2,0.3C121.2,138.2,120.2,130.9,118,129.7z"/>
	<path class="st0" d="M35.9,67.5c4.1-0.1,1.5-5.2,0.8-8.4c-2.4-10.6,4.1-22.1,0.3-31.9c-7.4,0.6-13.5,3.6-17.9,8.4l0,0.1
		c-4.8,5.3-3.8,15.1-3.2,22.1C24.6,52.3,36,58.2,35.9,67.5z"/>
	<path class="st0" d="M62.1,128.7c1.7-3.6,7.8-3.3,11.8-2.4c-4.8-1.9-9.3-6.6-13-10.6c-4.3-4.7-8.5-9.8-8.8-15.8
		c8,11.1,14.6,20.8,29.2,25.7c11,3.6,24-1.8,32.4-7.7c3.5-2.5,5.6-6.5,8.1-10c9.4-13.4,13.8-32.7,12.8-51.4
		c-0.4-7.7-0.4-15.4-3-20.5c-2.7-5.4-11.8-10.2-17.2-5.4c-1-5.3,4.4-8.5,10.7-6.7C120.6,18,116,11,109.5,7.3l0.1,0.5
		c-11.1-6.3-30.2-11-42.2-5.1c-9.6,4.8-22.7,12.8-27.1,22.9c4.2,9.7-1.1,18.6-1.6,28.5c-0.1,5.3,2.5,9.9,2.7,15.6
		c-1.4,2.3-5.7,2.6-8.8,2.5c-1-5.1-2.8-10.8-8-11.3c-7.4-0.8-12.8,5.3-13.1,11.7c-0.4,7.5,5.8,19.9,14.5,19.1
		c3.4-0.3,4.2-3.8,7.9-3.8c2,4-3.1,5.2-3.6,8c-0.1,0.7,0.4,3.5,0.7,4.9c1.6,6.6,5.2,15,8.6,20C44.1,127,52.8,128.1,62.1,128.7z
		 M108.8,110.2c-4,1.6-14.9,2.8-20.4-0.1c-3.5-1.9-5.7-6.1-7.7-8.5c-0.9-1.2-5.5-4.2-0.1-4.2l0.1,0.1c4.3,10.7,18.9,9.5,31.3,9.2
		C111.4,108,110.2,109.7,108.8,110.2z M81.8,91.4L81.8,91.4C81.9,91.4,81.9,91.4,81.8,91.4c6.3,3.2,17.5,3.6,25.9,3.3
		c0.5,1.9,0.5,4.1,0.5,6.4C97.5,101.7,84.7,99,81.8,91.4C81.9,91.4,81.9,91.4,81.8,91.4z M110.6,100.8c-0.2-2-0.3-5.1,0-6.3
		c7.4-0.7,11.9-4.4,17.6-7c0,0,0-0.1,0-0.1l0,0.1c0,0-0.1,0-0.1,0C124.9,93.7,120.2,100.5,110.6,100.8z M128.6,55.6
		c-1.4-3.9-3.3-7-3-12.3l-0.1,0h0.5c2.3,4.6,4.2,9.6,7,13.6c-1.9,4.4-14.3,8.3-14.1,0.4C121.6,56.1,126.2,57.1,128.6,55.6z M96.2,81
		c1.3,2.2,0.4,6.1,4,6.7c6.6,1.1,14.2-4,19-5.8c2.9-4.9-0.3-6.8-2.9-9.9c-5.4-6.5-12.7-14.6-12.5-24.4c2.2-1.6,2.4,2.4,2.7,3.1
		c2.8,6.7,9.9,15.1,15.1,20.8c1.3,1.5,3.3,2.7,3.5,3.6c0.6,2.7-1.7,5.8-1.5,7.6c0,0,0.1-0.1,0.1-0.1l-0.1,0.2c0,0,0-0.1,0-0.1
		c-7,4.6-14.9,9.5-26.4,8.3C94.7,89,93.8,84.2,96.2,81z M82.5,43.5C82.5,43.4,82.5,43.4,82.5,43.5l0.1-0.2
		C82.5,43.3,82.5,43.4,82.5,43.5c2.1,3.9,2.8,7.9,5.8,10.8c1.4,1.3,4,2.9,2.7,6.6c-0.3,0.8-2.5,2.7-3.8,3.1
		c-4.7,1.4-15.7,0.2-11.9-5.6c3.9,0.1,9.1,2.5,12-0.3C85.1,54.5,81.2,47.6,82.5,43.5z M58.7,36.7c1.8-4.9,8.9-11.3,14.7-10.5
		c2.5,0.4,5.9,2.7,4,5.8v0c-9.9-2.3-14.8,4.1-17.8,10.8C56.9,42.2,58,38.6,58.7,36.7z M30.4,78.2l0-0.2c-2.2-1.3-2.7-6.9-5.3-7
		c-3.7-0.2-3,7.3-3,11.7c-2.6-2.3-3-9.5-1.1-13.1c-2.1-1-3.1,1.1-4.3,2C18.1,60.5,32.8,66.4,30.4,78.2z"/>
	<path class="st0" d="M86,156.3h3.1c-0.3-0.5-0.6-0.9-1-1.4L86,156.3z"/>
	<path class="st0" d="M132.7,128.6c-4.1-3.6-6.6-6.8-10.8-10.2c-1.7,2.6-5.4,4.3-6.8,6.4c10-4.8,11.9,18.2,7.9,25.6
		c0.6,2.3,2.7,3.1,3.6,5.1l-0.6,1.1h9c0.1,0,0.2,0,0.3,0.1l0-0.3c1.4-4.3,2.5-8.5,3.2-12.2c0.4-2,1.5-6.4,1.3-8.2
		C139.3,133,134.9,130.6,132.7,128.6z"/>
	<path class="st0" d="M111.4,152.6l-0.2,3.8H123C120.8,153,116.4,150.2,111.4,152.6z"/>
	<path class="st0" d="M37.8,23.4c2.9-0.7,5.4-7.4,7.6-9.8c2.2-2.4,4.8-3.4,6.5-5.6c1.1-0.6,2.8-0.5,2.9-2.3c-0.5-0.5-1-0.9-1.6-0.7
		v0.1C42.5,8.1,28.6,16,24.2,25.7c3.4-0.5,5.8-2.2,9.2-2.4C34.7,23.2,36.4,23.8,37.8,23.4z"/>
	<path class="st0" d="M93.2,150c-0.7,0.7-1.3,1.6-2,2.2c1.1,1.3,2,2.6,2.9,4.1h5.7c0.1-1.1,0.9-2,2.1-2c1.1,0,2,0.8,2,1.9h4.5
		c0.1-1.3,0.1-2.6,0.2-3.9c-3.7,0.2-5.7-3.3-8.3-3.6C98,148.3,96.1,151.1,93.2,150z"/>
	<path class="st0" d="M83.7,142.9c2.2-1,5.2-1,7.2-2.3l0.1-1.4c-3.4-0.2-4.8-1.8-7.1-3l-0.5-0.1c-3.8-2.1-9.5-4.3-14.3-5.2
		c-6-1.1-5.4,8.3-5.2,13.9c0.2,4.4,2.5,9.1,3.5,12.1c0.5,1.4,0.6,2.8,1.8,3.1c2.1,0.5,9-2.3,10.9-3.3c4.2-2.3,7.4-5.9,10.9-8.3
		c0.1-1.2,0.1-2.3,0.2-3.5C89.2,143.8,86.8,143,83.7,142.9z"/>
</g>
</svg>
