<?xml version="1.0" encoding="utf-8"?>
<!-- Generator: Adobe Illustrator 21.1.0, SVG Export Plug-In . SVG Version: 6.00 Build 0)  -->
<svg version="1.1" id="Layer_1" xmlns="http://www.w3.org/2000/svg" xmlns:xlink="http://www.w3.org/1999/xlink" x="0px" y="0px"
	 viewBox="0 0 500 500" style="enable-background:new 0 0 500 500;" xml:space="preserve">
<style type="text/css">
	.st0{fill:#DA3E02;}
</style>
<g>
	<path class="st0" d="M415.9,64.1H132.2c-18.8,0-34.1,15.3-34.1,34.1v132.7c2.7,0.5,5.3,1.3,7.8,2.3c5.2-12.6,16.4-21.6,29.8-24
		v-54.8h276.6v191.8H277.3c-1.5,14.5-10.7,27-24.1,32.7c0.7,1.6,1.2,3.3,1.7,5h161.1c18.8,0,34.1-15.3,34.1-34.2c0,0,0,0,0,0V98.2
		C450,79.4,434.7,64.1,415.9,64.1z M314.5,126.4c-7.9,0-14.2-6.4-14.2-14.2s6.4-14.2,14.2-14.2c7.9,0,14.2,6.4,14.2,14.2v0
		C328.8,120,322.4,126.4,314.5,126.4z M356.8,126.4c-7.9,0-14.2-6.4-14.2-14.2c0-7.9,6.4-14.2,14.2-14.2c7.9,0,14.2,6.4,14.2,14.2v0
		C371.1,120,364.7,126.4,356.8,126.4z M399.1,126.4c-7.9,0-14.3-6.3-14.3-14.2c0-7.9,6.3-14.3,14.2-14.3c7.9,0,14.3,6.3,14.3,14.2
		c0,0,0,0.1,0,0.1C413.3,120,406.9,126.4,399.1,126.4z M252.4,224.4h-11.1c-4.6-0.1-8.5,3.1-9.3,7.6l-1.9,10.2
		c-0.8,4.5,1.6,8.9,5.9,10.5l10.4,4.1c0.9,6.9,3.3,13.6,6.9,19.6l-5.7,9.6c-2.3,3.9-1.5,8.9,1.9,11.9l7.8,6.7c3.5,3,8.7,3,12.2,0
		l8.6-7c6.5,2.7,13.4,4.1,20.4,4.1l5.4,9.7c2.3,3.9,7,5.6,11.3,4.1l9.8-3.4c4.3-1.5,6.9-5.9,6.2-10.4l-1.8-11
		c5.5-4.3,10.1-9.6,13.6-15.7H354c4.6,0.1,8.5-3.1,9.3-7.6l1.9-10.2c0.8-4.5-1.6-8.9-5.9-10.5l-10.4-4.1c-0.9-6.9-3.3-13.6-6.9-19.6
		l5.7-9.6c2.3-3.9,1.5-8.9-1.9-11.9l-7.8-6.7c-3.5-3-8.7-3-12.2,0l-8.6,7c-6.5-2.7-13.4-4.1-20.4-4.1l-5.4-9.7
		c-2.3-3.9-7-5.6-11.3-4.1l-9.7,3.5c-4.3,1.5-6.9,5.9-6.2,10.4l1.8,11C260.5,213,255.9,218.3,252.4,224.4L252.4,224.4z M278.3,245.9
		c2-10.6,12.3-17.6,22.9-15.6c10.6,2,17.6,12.3,15.6,22.9c-2,10.6-12.3,17.6-22.9,15.6l0,0C283.3,266.8,276.3,256.5,278.3,245.9z
		 M59.8,354.2l16.8,2.2c1.8,6.4,4.4,12.6,7.8,18.3l-10.2,13.5c-3.3,4.4-2.9,10.7,1.1,14.6l8.9,8.8c4,3.9,10.2,4.3,14.6,0.9
		l13.4-10.4c5.8,3.3,12,5.8,18.4,7.5l2.4,16.8c0.8,5.5,5.5,9.5,11.1,9.5l0,0h12.2c5.5-0.1,10.2-4.2,10.9-9.7l2.3-17
		c6.4-1.8,12.6-4.4,18.3-7.8l13.6,10.2c4.4,3.3,10.7,2.9,14.6-1.1l8.7-8.9c3.8-3.9,4.2-10,1-14.4l-10.4-13.4
		c3.3-5.8,5.8-12,7.5-18.4l16.8-2.4c5.5-0.8,9.6-5.5,9.6-11.1v-12.2c-0.1-5.5-4.2-10.2-9.7-10.9l-16.8-2.2
		c-1.8-6.4-4.4-12.6-7.8-18.3l10.2-13.6c3.3-4.4,2.9-10.7-1.1-14.6l-8.9-8.7c-4-3.9-10.2-4.3-14.6-0.9l-13.6,10.2
		c-5.8-3.3-12.1-5.8-18.6-7.5l-2.4-16.8c-0.8-5.5-5.5-9.5-11-9.6l0,0h-12.4c-5.6,0.1-10.2,4.2-10.9,9.8l-2.2,16.8
		c-6.4,1.8-12.5,4.4-18.2,7.8l-13.6-10.2c-4.5-3.3-10.7-2.8-14.5,1.2l-8.7,8.7c-3.9,4-4.3,10.2-0.9,14.6L83.8,299
		c-3.3,5.8-5.8,12-7.5,18.4l-16.8,2.4c-5.5,0.8-9.5,5.5-9.6,11v12.4C50,348.8,54.2,353.5,59.8,354.2z M149.3,311L149.3,311
		c14,0,25.4,11.4,25.4,25.4c0,14-11.4,25.4-25.4,25.4l0,0c-14,0-25.4-11.4-25.4-25.4C123.9,322.4,135.3,311,149.3,311z"/>
</g>
</svg>
