<?xml version="1.0" encoding="utf-8"?>
<!-- Generator: Adobe Illustrator 21.1.0, SVG Export Plug-In . SVG Version: 6.00 Build 0)  -->
<svg version="1.1" id="Layer_1" xmlns="http://www.w3.org/2000/svg" xmlns:xlink="http://www.w3.org/1999/xlink" x="0px" y="0px"
	 viewBox="0 0 500 500" style="enable-background:new 0 0 500 500;" xml:space="preserve">
<style type="text/css">
	.st0{fill:#666666;}
</style>
<g>
	<g>
		<path class="st0" d="M250,173c79.3,0,148,75.5,168.8,100.8H450c0-2.8-0.9-5.7-2.6-8.1c-3.6-4.9-88.7-120.2-197.4-120.2
			S56.2,260.8,52.6,265.7c-1.7,2.4-2.6,5.2-2.6,8.1h31.3C102,248.5,170.7,173,250,173z"/>
	</g>
	<path class="st0" d="M250,193.1c-44.6,0-80.7,36.1-80.7,80.7c0,44.6,36.1,80.7,80.7,80.7s80.7-36.1,80.7-80.7
		C330.7,229.2,294.6,193.1,250,193.1z M250,327c-29.4,0-53.2-23.8-53.2-53.2c0-29.4,23.8-53.2,53.2-53.2c29.4,0,53.2,23.8,53.2,53.2
		C303.2,303.2,279.4,327,250,327z"/>
</g>
</svg>
