<?xml version="1.0" encoding="utf-8"?>
<!-- Generator: Adobe Illustrator 21.1.0, SVG Export Plug-In . SVG Version: 6.00 Build 0)  -->
<svg version="1.1" id="Layer_1" xmlns="http://www.w3.org/2000/svg" xmlns:xlink="http://www.w3.org/1999/xlink" x="0px" y="0px"
	 viewBox="0 0 500 500" style="enable-background:new 0 0 500 500;" xml:space="preserve">
<style type="text/css">
	.st0{fill:#666666;}
</style>
<g>
	<path class="st0" d="M97.9,450H81.6c-0.4-1.1-0.8-2.2-1.1-3.3c-3.6-11.1-9.9-24.8-11.5-35.9c-2.4-16.4,13-17.3,22.9-24.4
		c15.2-11,27.2-17.1,43.8-27c4.9-2.9,19.7-10.4,21.3-13.8c3.3-6.8-5.7-16.4-8.2-21.7c-3.7-8.4-5.7-15.6-6.2-23.9
		c-13.7-2.2-24.2-10.4-30.7-19.7c-10.5-15.4-17.7-43.9-8.7-65.6c0.7-1.7,4.2-5.1,4.7-7.7c1-5.1-1.7-12-2-17.5
		c-1-28.2,4.7-52.5,23.7-61c7.7-30.7,35.2-40.9,61.2-56.1c9.7-5.7,20.4-9.3,31.5-13.4C261.8,44.3,322.7,47,355.5,72
		c13.9,10.5,36.2,32.8,44.2,49c21,42.6,19.5,113.7,4.8,165.6c-2,7-4.8,17.2-8.9,25.5c-2.8,5.8-11.5,17.5-10.4,22.7
		c1.1,5.2,19.8,19.5,23.8,23.2c7.2,7,21,16.2,22.1,25c1.2,9.2-4.1,22.2-6.8,31.2c-3.6,12-7.2,24-10.9,35.5H97.8L97.9,450z
		 M282.9,391c-9.1-4.9-22.7-10.3-34.4-12.6c-14.5-2.7-13,19.8-12.5,33.2c0.5,10.7,6,21.9,8.5,29c1.2,3.3,1.5,6.8,4.2,7.5
		c5,1.1,21.5-5.4,26.2-8c10-5.4,17.7-14,26.2-19.8c0.2-2.8,0.2-5.6,0.5-8.4c-5-2.5-10.7-4.3-18.2-4.6c5.2-2.5,12.5-2.5,17.2-5.5
		l0.2-3.2c-8.2-0.5-11.5-4.2-17-7.2L282.9,391z M407.2,439.9c3.2-10.3,6-20.3,7.7-29.2c1-4.8,3.6-15.3,3-19.6
		c-1-7.7-11.4-13.3-16.7-18.1c-9.7-8.7-15.8-16.2-26-24.5c-4.1,6.2-13,10.2-16.4,15.2c24.1-11.5,28.4,43.7,19,61.5
		c1.5,5.5,6.5,7.5,8.5,12.2l-1.4,2.7h21.5c0.2,0,0.5,0,0.7,0.2L407.2,439.9z M296.6,439.7c-0.8-1.2-1.6-2.2-2.5-3.5l-5,3.2h7.5
		V439.7z M342.8,439.7c0.1-3.5,0.3-6.7,0.5-10c-8.8,0.5-13.7-8-19.9-8.7c-5.4-0.7-10,6-17,3.2c-1.6,1.7-3.1,3.7-4.7,5.2
		c2.6,3,4.9,6.2,7,9.7h13.6c0.2-2.7,2.2-4.7,5-4.7c2.7,0,4.7,2,4.7,4.5h11L342.8,439.7z M378,439.7c-5.2-8-15.8-15-28-9.2l-0.5,9
		H378V439.7z M236.2,439.7l-1.7-5.7c-3.7-12-6-21-6.7-28c-15.2-7.2-31.2-14.5-44.2-23.7c-2.5-1.7-18.5-22.5-20.5-21.7
		c-29,11.2-56,31-80.2,49.7c4.2,9.2,8,19,11.5,29H236L236.2,439.7z M374,404.5c-0.5-8.5-2.7-26-8-29c-11-6.5-30.7,13-39,15.7
		c0.7,2.5,2.2,4.5,2.5,8c4.7-1.2,10.7-0.5,15,1.5c-5,0.5-10.5,0.5-13.7,2.7c-1.2,3.2,0.2,8-0.5,12.7c11.5,3.2,25,5,39.7,5.5
		c2.7-3.7,3.7-10.7,3.5-18L374,404.5z M306,398.5c-0.7,6.2,0.7,8.5,2,15.7c21,6.5,17.2-29-2.2-16L306,398.5z M196,375
		c-7.5,7.6,21.2,18,30.2,18.6c0-4.8,2.7-9.4,2.2-12.9C217.7,378.8,203.5,380,196,375L196,375z M288.8,378.6c0,0.7-1,0.5-1.1,1.1
		c9.7,7.5,16.9,9.1,30,8.5c5.9-4.3,11.2-9.4,17.4-13.4C320.8,376,302.9,384.8,288.8,378.6L288.8,378.6z M345.7,83.1
		C319,68,273.3,56.6,244.5,71c-23,11.5-54.5,30.7-65,54.9c10,23.4-2.7,44.7-3.7,68.5c-0.3,12.6,6,23.6,6.5,37.4
		c-3.3,5.6-13.7,6.3-21,5.9c-2.4-12.1-6.7-25.8-19.2-27.2c-17.7-1.9-30.7,12.7-31.5,28c-1,18,13.9,47.7,34.7,45.7
		c8.1-0.7,10.1-9,19-9c4.7,9.5-7.4,12.5-8.7,19.2c-0.2,1.7,1,8.5,1.7,11.7c3.9,15.7,12.4,36,20.7,48c10.6,15,31.4,17.5,53.8,19
		c4-8.7,18.7-8,28.4-5.7C248.7,363,238,351.7,229,342c-10.2-11.2-20.5-23.5-21-38c19.2,26.7,35,50,70,61.7
		c26.5,8.7,57.5-4.2,77.7-18.5c8.5-6,13.5-15.5,19.5-24c22.5-32.2,33-78.5,30.7-123.2c-1-18.5-1-37-7.2-49.2
		c-6.5-13-28.2-24.5-41.2-13c-2.5-12.7,10.5-20.5,25.7-16c-11-14.2-22.2-31-37.7-39.7L345.7,83.1z M276.4,298.3
		c10.2,25.7,45.4,22.7,75.1,22.1c-1.4,3.2-4.2,7.2-7.7,8.6c-9.5,3.9-35.7,6.8-48.9-0.2c-8.4-4.5-13.7-14.5-18.4-20.4
		c-2.2-2.8-13.2-10.1-0.2-10.1L276.4,298.3z M279.1,283.8c14.9,7.7,42,8.6,62.2,8c1.1,4.4,1.1,9.9,1.1,15.2
		c-25.9,1.3-56.4-5.1-63.2-23.2L279.1,283.8z M390.3,274c-7.9,15-19.1,31.6-42.3,32.1c-0.4-4.7-0.7-12.2,0-15.1
		c17.7-1.7,28.7-10.7,42.4-16.9L390.3,274z M379.5,262.9c-17,11-35.9,22.9-63.7,20.2c-5.8-5.2-8.1-16.7-2.3-24.3
		c3,5.2,1,14.7,9.5,16.1c15.7,2.7,34-9.6,45.5-14c7-11.9-0.7-16.2-7-23.9c-13-15.5-30.5-35-30-58.5c5.2-3.7,5.7,5.7,6.5,7.5
		c6.7,16,23.7,36.2,36.2,50c3,3.5,8,6.5,8.5,8.7c1.5,6.5-4.2,14.2-3.5,18.5L379.5,262.9z M155.6,251.6c-5.2-3.1-6.5-16.5-12.8-16.8
		c-8.9-0.5-7.3,17.5-7.2,28c-6.2-5.5-7.2-22.7-2.7-31.5c-5.1-2.5-7.4,2.7-10.3,4.7c3.7-26.5,39-12.2,33.1,16L155.6,251.6z
		 M128.6,149.9c-11.4,12.6-9,36.2-7.6,53.1c20.7-13.1,48.3,1,48,23.2c9.9-0.2,3.7-12.4,1.9-20.2c-5.9-25.5,9.9-53.1,0.7-76.5
		c-17.7,1.4-32.3,8.7-43,20.2L128.6,149.9z M280.6,168.5c5.1,9.3,6.7,19.1,14,26.1c3.2,3.2,9.6,7.1,6.4,15.9c-0.7,2-6.1,6.5-9.2,7.5
		c-11.2,3.2-37.6,0.5-28.7-13.5c9.3,0.2,21.9,6,28.9-0.7c-5.2-8.7-14.7-25.5-11.2-35.5L280.6,168.5z M383.9,168.2h1.1
		c5.5,11.1,10,22.9,16.7,32.7c-4.5,10.5-34.2,19.8-33.7,0.9c6.5-2.8,17.5-0.6,23.2-4.2c-3.2-9.2-8-16.7-7.2-29.5L383.9,168.2z
		 M268.4,141.3c-23.7-5.5-35.5,9.9-42.6,25.9c-6.4-1.5-3.8-10.2-2.2-14.7c4.2-11.7,21.3-27.2,35.3-25.1
		C264.8,128.3,273,133.8,268.4,141.3L268.4,141.3z M210.7,76.5c-26,7.3-59.3,26.2-70,49.6c8.2-1.2,14-5.3,22.2-5.8
		c3.1-0.2,7.1,1.2,10.7,0.2c7-1.7,13-17.7,18.3-23.5c5.2-5.7,11.4-8.2,15.7-13.5c2.7-1.5,6.8-1.2,7-5.5c-1.2-1.2-2.5-2.2-3.9-1.7
		V76.5z"/>
</g>
</svg>
